# xmcd
#
# Track frame offsets:
#	150
#	15572
#	29922
#	43235
#	58965
#	78527
#	92160
#	114662
#	125395
#	135202
#	147377
#	159850
#	172855
#	186412
#	197282
#	208820
#	219365
#	232045
#	242595
#	256222
#	269727
#	282762
#	295780
#	307877
#
# Disc length: 4305 seconds
#
# Revision: 1
# Processed by: cddbd v1.5.1PL0 Copyright (c) Steve Scherf et al.
# Submitted via: CDex 1.50Beta5
#
DISCID=6110cf18
DTITLE=OLDIES POPS - MY GIRL-4(Stand By Me)
DYEAR=1900
DGENRE=World
TTITLE0=Marlene Dietrich/リリー・マルレーン(Lilly Marlene)
TTITLE1=Billie Holliday/奇妙な果実(Strange Fruit)
TTITLE2=Loretta Lynn/たそがれのワルツ〜知りたくないの(I Really Don't Want To Know)
TTITLE3=Caterina Valente/そよ風と私(The Breeze And I)
TTITLE4=Hellen Merril/ユード・ビー・ソー・ナイス・トゥ・カム・ホーム・トゥ(You'd Be So Nice ToCome Home To)
TTITLE5=Carmen Cavallaro/愛情物語(Too Love Again)
TTITLE6=Ella Fitzgerald and Louis Armstorong/サマータイム(Summertime)
TTITLE7=Brian Hyland/ビキニ・スタイルのお嬢さん(Itsy Bitsy Teenie Winnie Yellow Polkadot Bikini)
TTITLE8=Jimmy Jones/グッド・タイミング(Good Timin')
TTITLE9=Mark Dinning/ティーン・エンジェル(Teen Angel)
TTITLE10=Film Symphonic Orchestra/太陽がいっぱい(Plein Sleil)
TTITLE11=Hugo Blanco/コーヒー・ルンバ(Moliendo Cafe)
TTITLE12=Ben E King/スタンド・バイ・ミー(Stand By Me)
TTITLE13=Bruce Channel/ヘイ・ベイビー(Hey! Baby)
TTITLE14=The Cascades/悲しき雨音(Rhythm Of The Rain)
TTITLE15=Connie Francis/可愛いベイビー(Pretty Little Baby)
TTITLE16=James Brown/アイ・ガット・ユー(I Got You)
TTITLE17=Louis Armstrong/この素晴らしき世界(What A Wonderful World)
TTITLE18=The Four Tops/リーチ・アウト・アイル・ビー・ゼア(Reach Out I'll Be There)
TTITLE19=Engelbert Humperdinck/ラスト・ワルツ(The Last Waltz)
TTITLE20=Stevie Wonder/マイ・シェリー・アモール(My Cherie Amour)
TTITLE21=Percy Sledge/男が女を愛する時(When A Man Loves A Woman)
TTITLE22=Otis Redding/ドック・オブ・ザ・ベイ(Sittin' On The Dock Of The Bay)
TTITLE23=Edwin Starr/黒い戦争(War)
EXTD=
EXTT0=
EXTT1=
EXTT2=
EXTT3=
EXTT4=
EXTT5=
EXTT6=
EXTT7=
EXTT8=
EXTT9=
EXTT10=
EXTT11=
EXTT12=
EXTT13=
EXTT14=
EXTT15=
EXTT16=
EXTT17=
EXTT18=
EXTT19=
EXTT20=
EXTT21=
EXTT22=
EXTT23=
PLAYORDER=
